<?xml version="1.0" encoding="utf-8"?>
<!-- Generator: Adobe Illustrator 15.0.0, SVG Export Plug-In . SVG Version: 6.00 Build 0)  -->
<!DOCTYPE svg PUBLIC "-//W3C//DTD SVG 1.1//EN" "http://www.w3.org/Graphics/SVG/1.1/DTD/svg11.dtd">
<svg version="1.1" id="Ebene_1" xmlns="http://www.w3.org/2000/svg" xmlns:xlink="http://www.w3.org/1999/xlink" x="0px" y="0px"
	 width="1024px" height="768px" viewBox="0 0 1024 768" enable-background="new 0 0 1024 768" xml:space="preserve">
<text transform="matrix(1.2108 0 0 1 571.4404 596)" font-family="'Roboto-Regular'" font-size="8">Rapide Untergrund Material Modellierung und Zonierung</text>
<text transform="matrix(1 0 0 1 565.9609 579.5918)" font-family="'CharcoalCY'" font-size="72">rummz</text>
<circle fill="none" stroke="#000000" stroke-width="10" stroke-linecap="round" stroke-miterlimit="10" cx="280.42" cy="341.672" r="159.833"/>
<text transform="matrix(1.2108 0 0 1 114.5527 601)" font-family="'Roboto-Thin'" font-size="11">Rapide Untergrund Material Modellierung und Zonierung</text>
<g>
	<line fill="none" stroke="#000000" stroke-width="30" stroke-miterlimit="10" x1="361" y1="288" x2="199" y2="288"/>
	<line fill="none" stroke="#000000" stroke-width="30" stroke-miterlimit="10" x1="361" y1="342" x2="199" y2="342"/>
	<line fill="none" stroke="#000000" stroke-width="30" stroke-miterlimit="10" x1="279" y1="396" x2="279" y2="249"/>
	<line fill="none" stroke="#000000" stroke-width="30" stroke-miterlimit="10" x1="361" y1="396" x2="199" y2="396"/>
</g>
<text transform="matrix(1 0 0 1 112.1641 584.5918)" font-family="'Silom'" font-size="72" letter-spacing="17">RUMMZ</text>
<g>
	
		<circle fill="none" stroke="#000000" stroke-width="10" stroke-linecap="round" stroke-miterlimit="10" cx="692.735" cy="336.672" r="159.833"/>
	<g>
		<line fill="none" stroke="#000000" stroke-width="30" stroke-miterlimit="10" x1="812" y1="283" x2="572" y2="283"/>
		<line fill="none" stroke="#000000" stroke-width="30" stroke-miterlimit="10" x1="823" y1="337" x2="561" y2="337"/>
		<line fill="none" stroke="#000000" stroke-width="30" stroke-miterlimit="10" x1="812" y1="391" x2="572" y2="391"/>
		<line fill="none" stroke="#000000" stroke-width="30" stroke-miterlimit="10" x1="691" y1="391" x2="691" y2="283"/>
		<g>
			<path fill="#FFFFFF" d="M691.735,230.839c58.452,0,105.833,47.382,105.833,105.833c0,58.45-47.381,105.833-105.833,105.833
				c-58.45,0-105.833-47.383-105.833-105.833C585.902,278.221,633.285,230.839,691.735,230.839 M691.735,190.839
				c-19.67,0-38.772,3.861-56.777,11.477c-17.37,7.347-32.962,17.856-46.343,31.237c-13.38,13.38-23.889,28.972-31.236,46.342
				c-7.615,18.005-11.477,37.107-11.477,56.777s3.861,38.772,11.477,56.777c7.348,17.37,17.856,32.962,31.236,46.342
				c13.381,13.381,28.973,23.89,46.343,31.237c18.005,7.615,37.107,11.477,56.777,11.477s38.773-3.861,56.778-11.477
				c17.37-7.347,32.962-17.856,46.342-31.237c13.381-13.38,23.89-28.972,31.236-46.343c7.615-18.004,11.477-37.107,11.477-56.776
				c0-19.67-3.861-38.772-11.477-56.777c-7.347-17.371-17.855-32.962-31.236-46.343c-13.38-13.38-28.972-23.89-46.343-31.237
				C730.509,194.7,711.405,190.839,691.735,190.839L691.735,190.839z"/>
		</g>
	</g>
</g>
<text transform="matrix(1 0 0 1 1086 62)"><tspan x="0" y="0" font-family="'CharcoalCY'" font-size="48">Bohrkern 1 </tspan><tspan x="274.219" y="0" font-family="'CharcoalCY'" font-size="18">von 5</tspan><tspan x="0" y="57.6" font-family="'CharcoalCY'" font-size="48">0,123456789</tspan><tspan x="0" y="115.2" font-family="'CharcoalCY'" font-size="48">Titel</tspan><tspan x="0" y="172.8" font-family="'CharcoalCY'" font-size="48">EPSG</tspan><tspan x="0" y="230.4" font-family="'CharcoalCY'" font-size="48">Latitude</tspan><tspan x="0" y="288" font-family="'CharcoalCY'" font-size="48">Longitude</tspan><tspan x="0" y="345.6" font-family="'CharcoalCY'" font-size="48">NHN (m)</tspan><tspan x="0" y="403.2" font-family="'CharcoalCY'" font-size="48">Col</tspan><tspan x="0" y="460.8" font-family="'CharcoalCY'" font-size="48">Schicht 1 </tspan><tspan x="225.258" y="460.8" font-family="'CharcoalCY'" font-size="18">von 5</tspan><tspan x="0" y="518.4" font-family="'CharcoalCY'" font-size="48">Schichtname</tspan><tspan x="0" y="576" font-family="'CharcoalCY'" font-size="48">Hoehe (m)</tspan><tspan x="0" y="633.6" font-family="'CharcoalCY'" font-size="48">optional</tspan><tspan x="0" y="691.2" font-family="'CharcoalCY'" font-size="48">cm</tspan></text>
<text transform="matrix(1 0 0 1 1556 62)"><tspan x="0" y="0" font-family="'Silom'" font-size="48">Bohrkern 1 </tspan><tspan x="296.109" y="0" font-family="'Silom'" font-size="18">von 5</tspan><tspan x="0" y="57.6" font-family="'Silom'" font-size="48">0,123456789</tspan><tspan x="0" y="115.2" font-family="'Silom'" font-size="48">Titel</tspan><tspan x="0" y="172.8" font-family="'Silom'" font-size="48">EPSG</tspan><tspan x="0" y="230.4" font-family="'Silom'" font-size="48">Latitude</tspan><tspan x="0" y="288" font-family="'Silom'" font-size="48">Longitude</tspan><tspan x="0" y="345.6" font-family="'Silom'" font-size="48">NHN (m)</tspan><tspan x="0" y="403.2" font-family="'Silom'" font-size="48">Col</tspan><tspan x="0" y="460.8" font-family="'Silom'" font-size="48">Schicht 1 </tspan><tspan x="243.981" y="460.8" font-family="'Silom'" font-size="18">von 5</tspan><tspan x="0" y="518.4" font-family="'Silom'" font-size="48">Schichtname</tspan><tspan x="0" y="576" font-family="'Silom'" font-size="48">Höhe (m)</tspan><tspan x="0" y="633.6" font-family="'Silom'" font-size="48">optional</tspan><tspan x="0" y="691.2" font-family="'Silom'" font-size="48">cm</tspan></text>
<text transform="matrix(1.2108 0 0 1 2158.4404 579)" font-family="'Roboto-Regular'" font-size="8">Rapide Untergrund Material Modellierung und Zonierung</text>
<text transform="matrix(1 0 0 1 2147.3359 557.5918)" font-family="'Silom'" font-size="72">rummz</text>
<g>
	
		<circle fill="none" stroke="#000000" stroke-width="10" stroke-linecap="round" stroke-miterlimit="10" cx="2285.36" cy="319.672" r="159.833"/>
	<g>
		<line fill="none" stroke="#000000" stroke-width="30" stroke-miterlimit="10" x1="2405" y1="266" x2="2165" y2="266"/>
		<line fill="none" stroke="#000000" stroke-width="30" stroke-miterlimit="10" x1="2416" y1="320" x2="2154" y2="320"/>
		<line fill="none" stroke="#000000" stroke-width="30" stroke-miterlimit="10" x1="2405" y1="374" x2="2165" y2="374"/>
		<line fill="none" stroke="#000000" stroke-width="30" stroke-miterlimit="10" x1="2284" y1="374" x2="2284" y2="266"/>
		<g>
			<path fill="#FFFFFF" d="M2284.359,213.839c58.453,0,105.834,47.382,105.834,105.833c0,58.45-47.381,105.833-105.834,105.833
				c-58.449,0-105.832-47.383-105.832-105.833C2178.527,261.221,2225.91,213.839,2284.359,213.839 M2284.359,173.839
				c-19.67,0-38.771,3.861-56.776,11.477c-17.37,7.347-32.962,17.856-46.343,31.237c-13.38,13.38-23.889,28.972-31.236,46.342
				c-7.615,18.005-11.477,37.107-11.477,56.777s3.861,38.772,11.477,56.777c7.348,17.37,17.856,32.962,31.236,46.342
				c13.381,13.381,28.973,23.89,46.343,31.237c18.005,7.615,37.106,11.477,56.776,11.477s38.773-3.861,56.778-11.477
				c17.37-7.347,32.963-17.856,46.343-31.237c13.381-13.38,23.89-28.972,31.236-46.342c7.615-18.005,11.477-37.107,11.477-56.777
				s-3.861-38.772-11.477-56.777c-7.347-17.371-17.855-32.963-31.236-46.343c-13.38-13.38-28.973-23.89-46.343-31.237
				C2323.133,177.7,2304.029,173.839,2284.359,173.839L2284.359,173.839z"/>
		</g>
	</g>
</g>
<g>
	<g>
		<g>
			<polygon points="2533.174,297 2643,297 2643,266 2527.532,266 			"/>
		</g>
		<g>
			<polygon points="2542.962,353 2643,353 2643,331 2539.199,331 			"/>
		</g>
		<g>
			<polygon points="2551.245,402 2643,402 2643,392 2549.362,392 			"/>
		</g>
		<g>
			<polygon points="2693.618,309 2584,309 2584,276 2699.261,276 			"/>
		</g>
		<g>
			<polygon points="2683.83,364 2584,364 2584,343 2687.593,343 			"/>
		</g>
		<g>
			<polygon points="2675.549,412 2584,412 2584,402 2677.431,402 			"/>
		</g>
	</g>
	<circle fill="none" stroke="#000000" stroke-width="5" stroke-miterlimit="10" cx="2613.396" cy="323.126" r="147.252"/>
</g>
<text transform="matrix(1.2108 0 0 1 2490.5352 568.2959)" font-family="'Roboto-Regular'" font-size="8">Rapide Untergrund Material Modellierung und Zonierung</text>
<text transform="matrix(1 0 0 1 2475.373 546.8877)" font-family="'Silom'" font-size="72">rummz</text>
<g>
	<polygon points="3277.193,400 3223.191,400 3225.829,385 3279.83,385 	"/>
</g>
<g>
	<polygon points="3272.619,426 3218.62,426 3220.377,416 3274.378,416 	"/>
</g>
<g>
	<polygon points="3268.749,448 3214.75,448 3215.63,443 3269.629,443 	"/>
</g>
<g>
	<polygon points="3171.387,598 3225.389,598 3222.751,613 3168.75,613 	"/>
</g>
<g>
	<polygon points="3175.961,572 3229.96,572 3228.203,582 3174.202,582 	"/>
</g>
<g>
	<polygon points="3179.831,550 3233.83,550 3232.95,555 3178.951,555 	"/>
</g>
<g>
	<polygon points="3029.645,341 2928.567,341 2933.504,369 3034.58,369 	"/>
</g>
<g>
	<polygon points="3021.083,292 2920.012,292 2923.299,311 3024.375,311 	"/>
</g>
<g>
	<polygon points="3013.84,249 2912.768,249 2914.414,258 3015.486,258 	"/>
</g>
<g>
	<polygon points="2855.936,341 2957.013,341 2952.076,369 2851,369 	"/>
</g>
<g>
	<polygon points="2864.497,292 2965.568,292 2962.281,311 2861.205,311 	"/>
</g>
<g>
	<polygon points="2871.74,249 2972.812,249 2971.166,258 2870.094,258 	"/>
</g>
<circle fill="none" stroke="#000000" stroke-width="5" stroke-miterlimit="10" cx="2942.396" cy="315.126" r="147.252"/>
<text transform="matrix(1.2108 0 0 1 2819.5352 560.2959)" font-family="'Roboto-Regular'" font-size="8">Rapide Untergrund Material Modellierung und Zonierung</text>
<text transform="matrix(1 0 0 1 2804.373 538.8877)" font-family="'Silom'" font-size="72">rummz</text>
</svg>
