<?xml version="1.0" encoding="utf-8"?>
<!-- Generator: Adobe Illustrator 15.0.0, SVG Export Plug-In . SVG Version: 6.00 Build 0)  -->
<!DOCTYPE svg PUBLIC "-//W3C//DTD SVG 1.1//EN" "http://www.w3.org/Graphics/SVG/1.1/DTD/svg11.dtd">
<svg version="1.1" id="Ebene_1" xmlns="http://www.w3.org/2000/svg" xmlns:xlink="http://www.w3.org/1999/xlink" x="0px" y="0px"
	 width="201.998px" height="187.998px" viewBox="0 0 201.998 187.998" enable-background="new 0 0 201.998 187.998"
	 xml:space="preserve">
<g>
	<path d="M3.999,183c16.167-2.071,32.333-3.146,48.5-3.918c16.167-0.733,32.333-1.075,48.5-1.08
		c16.167-0.009,32.333,0.334,48.5,1.066c16.167,0.771,32.333,1.848,48.5,3.932c-16.167,2.084-32.333,3.161-48.5,3.932
		c-16.167,0.732-32.333,1.075-48.5,1.066c-16.167-0.005-32.333-0.347-48.5-1.08C36.333,186.146,20.166,185.071,3.999,183z"/>
</g>
<g>
	<path d="M3.999,141.5c1.941-0.861,3.903-1.646,5.854-2.472l5.889-2.353c3.926-1.568,7.877-3.048,11.829-4.524
		c7.911-2.933,15.864-5.715,23.842-8.416c7.979-2.696,15.991-5.274,24.024-7.781c4.013-1.265,8.047-2.458,12.069-3.691l12.106-3.565
		l1.385-0.408l1.388,0.408l12.109,3.558l12.07,3.688c8.032,2.512,16.048,5.077,24.025,7.779c7.978,2.699,15.931,5.482,23.841,8.416
		c3.951,1.479,7.902,2.96,11.828,4.529l5.888,2.355c1.95,0.827,3.912,1.614,5.853,2.477c-2.102-0.304-4.181-0.684-6.272-1.023
		l-6.237-1.145c-4.158-0.764-8.29-1.616-12.422-2.471c-8.257-1.732-16.47-3.616-24.658-5.584c-8.19-1.964-16.341-4.065-24.476-6.221
		l-12.179-3.479l-12.142-3.611h2.772l-12.144,3.604c-4.061,1.101-8.11,2.324-12.18,3.393c-8.133,2.16-16.288,4.29-24.476,6.261
		c-8.189,1.966-16.402,3.87-24.659,5.604c-4.131,0.856-8.263,1.722-12.42,2.486l-6.236,1.153C8.179,140.809,6.1,141.194,3.999,141.5
		z"/>
</g>
<g>
	<path d="M3.999,90c1.906-1.14,3.843-2.208,5.764-3.314l5.814-3.2c3.875-2.134,7.788-4.183,11.701-6.229
		c7.835-4.072,15.733-8.001,23.665-11.852c7.933-3.847,15.915-7.581,23.927-11.247c4.001-1.844,8.031-3.62,12.046-5.433
		l12.098-5.312l1.985-0.872l1.988,0.872l12.101,5.305l12.048,5.43c8.01,3.67,15.997,7.392,23.928,11.244
		c7.932,3.849,15.829,7.779,23.664,11.853c3.912,2.048,7.824,4.098,11.699,6.233l5.812,3.203c1.92,1.107,3.856,2.177,5.762,3.319
		c-2.137-0.608-4.241-1.289-6.363-1.931l-6.312-2.047c-4.208-1.365-8.38-2.815-12.551-4.267c-8.332-2.926-16.602-5.996-24.836-9.147
		c-8.235-3.147-16.415-6.426-24.572-9.756l-12.202-4.881l-12.149-5.005h3.972l-12.152,4.998c-4.069,1.687-8.122,3.316-12.204,4.973
		c-8.155,3.334-16.34,6.553-24.573,9.706c-8.235,3.15-16.504,6.196-24.835,9.125c-4.17,1.453-8.341,2.893-12.549,4.259L10.36,88.07
		C8.239,88.714,6.135,89.39,3.999,90z"/>
</g>
<g>
	<path d="M100.999,183c-2.071-15.25-3.145-30.5-3.918-45.75C96.348,122,96.006,106.75,96,91.5c-0.008-15.25,0.334-30.5,1.067-45.75
		c0.77-15.25,1.848-30.5,3.932-45.75c2.084,15.25,3.161,30.5,3.932,45.75c0.732,15.25,1.075,30.5,1.066,45.75
		c-0.005,15.25-0.347,30.5-1.08,45.75C104.145,152.5,103.07,167.75,100.999,183z"/>
</g>
<g>
	<path d="M3.999,183c-1.657-11.394-2.516-22.787-3.134-34.181C0.278,137.426,0.005,126.032,0,114.638
		c-0.006-11.394,0.268-22.787,0.854-34.181C1.47,69.063,2.332,57.67,3.999,46.276C5.666,57.67,6.528,69.063,7.144,80.457
		c0.586,11.394,0.86,22.788,0.854,34.181c-0.005,11.394-0.278,22.788-0.865,34.181C6.515,160.213,5.656,171.606,3.999,183z"/>
</g>
<g>
	<path d="M197.999,183c-1.657-11.394-2.516-22.787-3.135-34.181c-0.586-11.394-0.859-22.787-0.864-34.181
		c-0.006-11.394,0.268-22.787,0.854-34.181c0.616-11.394,1.479-22.787,3.146-34.181c1.667,11.394,2.529,22.787,3.146,34.181
		c0.586,11.394,0.859,22.787,0.854,34.181c-0.005,11.394-0.278,22.787-0.864,34.181C200.515,160.213,199.656,171.606,197.999,183z"
		/>
</g>
</svg>
