<?xml version="1.0" encoding="utf-8"?>
<!-- Generator: Adobe Illustrator 15.0.0, SVG Export Plug-In . SVG Version: 6.00 Build 0)  -->
<!DOCTYPE svg PUBLIC "-//W3C//DTD SVG 1.1//EN" "http://www.w3.org/Graphics/SVG/1.1/DTD/svg11.dtd">
<svg version="1.1" id="Ebene_1" xmlns="http://www.w3.org/2000/svg" xmlns:xlink="http://www.w3.org/1999/xlink" x="0px" y="0px"
	 width="333px" height="333px" viewBox="0 0 333 333" enable-background="new 0 0 333 333" xml:space="preserve">
<g>
	<g>
		<path d="M70,258c16.167-2.071,32.333-3.146,48.5-3.918c16.167-0.733,32.333-1.075,48.5-1.08c16.167-0.009,32.333,0.334,48.5,1.066
			c16.167,0.771,32.333,1.848,48.5,3.932c-16.167,2.084-32.333,3.161-48.5,3.932c-16.167,0.732-32.333,1.075-48.5,1.066
			c-16.167-0.005-32.333-0.347-48.5-1.08C102.333,261.146,86.167,260.071,70,258z"/>
	</g>
	<g>
		<path d="M70,216.5c1.941-0.861,3.903-1.646,5.854-2.472l5.889-2.353c3.926-1.568,7.877-3.048,11.829-4.524
			c7.911-2.933,15.864-5.716,23.842-8.416c7.979-2.696,15.991-5.274,24.024-7.781c4.014-1.265,8.048-2.458,12.07-3.691l12.105-3.565
			l1.385-0.407l1.389,0.407l12.108,3.559l12.07,3.688c8.032,2.512,16.048,5.077,24.025,7.779c7.978,2.699,15.931,5.482,23.841,8.416
			c3.951,1.479,7.902,2.96,11.828,4.529l5.888,2.355c1.95,0.827,3.912,1.614,5.853,2.477c-2.102-0.304-4.181-0.684-6.272-1.023
			l-6.237-1.145c-4.158-0.764-8.29-1.616-12.422-2.471c-8.257-1.732-16.47-3.616-24.658-5.584
			c-8.19-1.964-16.341-4.065-24.476-6.221l-12.179-3.463L165.614,193h2.771l-12.144,3.586c-4.061,1.101-8.11,2.316-12.18,3.385
			c-8.134,2.158-16.288,4.285-24.476,6.256c-8.189,1.966-16.402,3.869-24.659,5.604c-4.131,0.856-8.263,1.72-12.42,2.484
			l-6.236,1.152C74.18,215.809,72.101,216.194,70,216.5z"/>
	</g>
	<g>
		<path d="M70,165c1.906-1.14,3.843-2.208,5.764-3.314l5.814-3.2c3.875-2.134,7.788-4.183,11.701-6.229
			c7.835-4.072,15.733-8.001,23.665-11.852c7.933-3.847,15.915-7.581,23.927-11.247c4.001-1.844,8.031-3.62,12.046-5.433
			l12.098-5.312l1.984-0.872l1.988,0.872l12.101,5.305l12.048,5.43c8.01,3.67,15.997,7.392,23.928,11.244
			c7.932,3.849,15.829,7.779,23.664,11.853c3.912,2.048,7.824,4.098,11.699,6.233l5.812,3.203c1.92,1.107,3.856,2.177,5.762,3.319
			c-2.137-0.608-4.241-1.289-6.363-1.931l-6.312-2.047c-4.208-1.365-8.38-2.815-12.551-4.267
			c-8.332-2.926-16.602-5.996-24.836-9.147c-8.235-3.147-16.415-6.426-24.572-9.756l-12.202-4.864L165.014,128h3.973l-12.152,4.981
			c-4.069,1.687-8.122,3.308-12.204,4.964c-8.155,3.334-16.34,6.548-24.573,9.702c-8.235,3.15-16.504,6.194-24.835,9.123
			c-4.17,1.454-8.341,2.892-12.549,4.258l-6.311,2.043C74.24,163.715,72.136,164.39,70,165z"/>
	</g>
	<g>
		<path d="M167,258c-2.071-15.25-3.146-30.5-3.918-45.75c-0.733-15.25-1.075-30.5-1.08-45.75c-0.009-15.25,0.334-30.5,1.066-45.75
			c0.771-15.25,1.848-30.5,3.932-45.75c2.084,15.25,3.161,30.5,3.932,45.75c0.732,15.25,1.075,30.5,1.066,45.75
			c-0.005,15.25-0.347,30.5-1.08,45.75C170.146,227.5,169.071,242.75,167,258z"/>
	</g>
	<g>
		<path d="M70,258c-1.657-11.394-2.516-22.787-3.134-34.181c-0.587-11.394-0.86-22.787-0.865-34.181
			c-0.006-11.395,0.268-22.788,0.854-34.182c0.616-11.394,1.478-22.787,3.145-34.181c1.667,11.394,2.529,22.787,3.145,34.181
			c0.586,11.394,0.86,22.787,0.854,34.182c-0.005,11.394-0.278,22.787-0.865,34.181C72.516,235.213,71.657,246.606,70,258z"/>
	</g>
	<g>
		<path d="M264,258c-1.657-11.394-2.516-22.787-3.135-34.181c-0.586-11.394-0.859-22.787-0.864-34.181
			c-0.006-11.394,0.268-22.787,0.854-34.181c0.616-11.394,1.479-22.787,3.146-34.181c1.667,11.394,2.529,22.787,3.146,34.181
			c0.586,11.394,0.859,22.787,0.854,34.181c-0.005,11.394-0.278,22.787-0.864,34.181C266.516,235.213,265.657,246.606,264,258z"/>
	</g>
</g>
<circle fill="none" stroke="#000000" stroke-width="5" stroke-linecap="square" stroke-linejoin="bevel" stroke-miterlimit="10" cx="166.5" cy="166.5" r="164"/>
</svg>
