<?xml version="1.0" encoding="utf-8"?>
<!-- Generator: Adobe Illustrator 15.0.0, SVG Export Plug-In . SVG Version: 6.00 Build 0)  -->
<!DOCTYPE svg PUBLIC "-//W3C//DTD SVG 1.1//EN" "http://www.w3.org/Graphics/SVG/1.1/DTD/svg11.dtd">
<svg version="1.1" id="Ebene_1" xmlns="http://www.w3.org/2000/svg" xmlns:xlink="http://www.w3.org/1999/xlink" x="0px" y="0px"
	 width="329.628px" height="332.751px" viewBox="0 0 329.628 332.751" enable-background="new 0 0 329.628 332.751"
	 xml:space="preserve">
<g>
	<circle cx="165.377" cy="166.667" r="164"/>
	<path d="M329.627,166.667c0.041,21.502-4.102,43.004-12.093,63.023c-7.972,20.033-19.976,38.504-35.082,54.051
		c-15.085,15.559-33.362,28.146-53.46,36.509c-20.065,8.451-41.869,12.657-63.629,12.497c-21.713-0.184-43.394-4.71-63.293-13.242
		c-9.955-4.258-19.475-9.5-28.383-15.61c-8.928-6.084-17.253-13.028-24.849-20.69c-7.623-7.637-14.439-16.056-20.477-24.99
		c-6.03-8.942-11.183-18.48-15.35-28.438c-2.084-4.978-3.922-10.06-5.504-15.222c-1.605-5.154-2.967-10.387-4.062-15.678
		c-2.194-10.586-3.337-21.38-3.437-32.22c-0.218-21.619,3.737-43.408,11.983-63.525c8.173-20.138,20.393-38.657,35.757-54.095
		c15.333-15.463,33.731-27.907,53.856-36.332C121.72,4.242,143.571-0.015,165.377,0c21.804,0.075,43.633,4.362,63.696,12.889
		c20.093,8.443,38.352,21.07,53.433,36.648c15.093,15.573,27.096,34.048,35.066,54.089
		C325.563,123.653,329.692,145.162,329.627,166.667z M329.127,166.666c-0.044-10.717-1.092-21.434-3.237-31.929
		c-2.181-10.484-5.336-20.771-9.601-30.578c-8.46-19.639-20.828-37.513-36.11-52.294c-7.631-7.402-15.991-14.016-24.854-19.823
		c-4.438-2.896-9.016-5.572-13.709-8.017c-4.684-2.465-9.487-4.698-14.387-6.688c-9.805-3.965-19.974-7.014-30.347-9.032
		c-10.372-2.018-20.94-3.004-31.505-2.971c-10.563,0.026-21.125,1.021-31.485,3.072c-10.36,2.045-20.512,5.12-30.291,9.114
		c-19.555,8.005-37.506,19.933-52.527,34.844c-15.01,14.917-27.161,32.747-35.419,52.289c-4.121,9.771-7.297,19.947-9.48,30.343
		c-2.173,10.403-3.314,21.015-3.429,31.68c-0.174,21.262,3.696,42.693,11.89,62.428c4.056,9.877,9.093,19.354,15.008,28.253
		c5.905,8.908,12.784,17.157,20.341,24.703c7.588,7.519,15.93,14.27,24.845,20.128c8.932,5.835,18.428,10.783,28.307,14.747
		c19.76,7.956,41.026,11.864,62.253,11.651c10.578-0.057,21.176-1.182,31.558-3.227c10.385-2.071,20.556-5.173,30.361-9.17
		c4.899-2.008,9.7-4.259,14.381-6.741c4.692-2.459,9.268-5.146,13.702-8.056c8.853-5.836,17.215-12.455,24.841-19.87
		c15.269-14.808,27.636-32.687,36.095-52.332c4.265-9.81,7.414-20.102,9.591-30.588
		C328.057,188.103,329.092,177.386,329.127,166.666z"/>
</g>
<g>
	<path fill="#FFFFFF" d="M68.877,237.235c16.167-2.071,32.333-3.146,48.5-3.918c16.167-0.733,32.333-1.075,48.5-1.08
		c16.167-0.009,32.333,0.334,48.5,1.066c16.167,0.771,32.333,1.848,48.5,3.932c-16.167,2.084-32.333,3.161-48.5,3.932
		c-16.167,0.732-32.333,1.075-48.5,1.066c-16.167-0.005-32.333-0.347-48.5-1.08C101.211,240.38,85.044,239.306,68.877,237.235z"/>
</g>
<g>
	<path fill="#FFFFFF" d="M68.877,195.735c1.941-0.861,3.903-1.646,5.854-2.472l5.889-2.353c3.926-1.568,7.877-3.048,11.829-4.524
		c7.911-2.933,15.864-5.715,23.842-8.416c7.979-2.696,15.991-5.274,24.024-7.781c4.014-1.265,8.048-2.458,12.07-3.691l12.105-3.565
		l1.385-0.407l1.389,0.407l12.108,3.558l12.07,3.688c8.032,2.512,16.048,5.077,24.025,7.779c7.978,2.699,15.931,5.482,23.841,8.416
		c3.951,1.479,7.902,2.96,11.828,4.529l5.888,2.355c1.95,0.827,3.912,1.614,5.853,2.477c-2.102-0.304-4.181-0.684-6.272-1.023
		l-6.237-1.145c-4.158-0.764-8.29-1.616-12.422-2.471c-8.257-1.732-16.47-3.616-24.658-5.584c-8.19-1.964-16.341-4.065-24.476-6.221
		l-12.179-3.479l-12.142-3.611h2.771l-12.144,3.604c-4.061,1.1-8.11,2.324-12.18,3.393c-8.134,2.16-16.288,4.29-24.476,6.261
		c-8.189,1.966-16.402,3.87-24.659,5.604c-4.131,0.856-8.263,1.722-12.42,2.486l-6.236,1.153
		C73.058,195.043,70.979,195.429,68.877,195.735z"/>
</g>
<g>
	<path fill="#FFFFFF" d="M68.877,144.235c1.906-1.14,3.843-2.208,5.764-3.314l5.814-3.2c3.875-2.134,7.788-4.183,11.701-6.229
		c7.835-4.072,15.733-8.001,23.665-11.852c7.933-3.847,15.915-7.581,23.927-11.247c4.001-1.844,8.031-3.62,12.046-5.433
		l12.098-5.312l1.984-0.872l1.988,0.872l12.101,5.305l12.048,5.43c8.01,3.67,15.997,7.392,23.928,11.244
		c7.932,3.849,15.829,7.779,23.664,11.853c3.912,2.048,7.824,4.098,11.699,6.233l5.812,3.203c1.92,1.107,3.856,2.177,5.762,3.319
		c-2.137-0.608-4.241-1.289-6.363-1.931l-6.312-2.047c-4.208-1.365-8.38-2.815-12.551-4.267c-8.332-2.926-16.602-5.996-24.836-9.147
		c-8.235-3.147-16.415-6.426-24.572-9.756l-12.202-4.881l-12.149-5.005h3.973l-12.152,4.998c-4.069,1.687-8.122,3.316-12.204,4.973
		c-8.155,3.334-16.34,6.553-24.573,9.706c-8.235,3.15-16.504,6.196-24.835,9.125c-4.17,1.453-8.341,2.893-12.549,4.259l-6.311,2.044
		C73.118,142.949,71.013,143.625,68.877,144.235z"/>
</g>
<g>
	<path fill="#FFFFFF" d="M165.877,237.235c-2.071-15.25-3.146-30.5-3.918-45.75c-0.733-15.25-1.075-30.5-1.08-45.75
		c-0.009-15.25,0.334-30.5,1.066-45.75c0.771-15.25,1.848-30.5,3.932-45.75c2.084,15.25,3.161,30.5,3.932,45.75
		c0.732,15.25,1.075,30.5,1.066,45.75c-0.005,15.25-0.347,30.5-1.08,45.75C169.023,206.735,167.949,221.985,165.877,237.235z"/>
</g>
<g>
	<path fill="#FFFFFF" d="M68.877,237.235c-1.657-11.394-2.516-22.787-3.134-34.181c-0.587-11.394-0.86-22.787-0.865-34.182
		c-0.006-11.393,0.268-22.787,0.854-34.181c0.616-11.394,1.478-22.787,3.145-34.181c1.667,11.394,2.529,22.787,3.145,34.181
		c0.586,11.394,0.86,22.788,0.854,34.181c-0.005,11.395-0.278,22.788-0.865,34.182C71.394,214.448,70.534,225.841,68.877,237.235z"
		/>
</g>
<g>
	<path fill="#FFFFFF" d="M262.877,237.235c-1.657-11.394-2.516-22.787-3.135-34.181c-0.586-11.394-0.859-22.787-0.864-34.181
		c-0.006-11.394,0.268-22.787,0.854-34.181c0.616-11.394,1.479-22.787,3.146-34.181c1.667,11.394,2.529,22.787,3.146,34.181
		c0.586,11.394,0.859,22.787,0.854,34.181c-0.005,11.394-0.278,22.787-0.864,34.181
		C265.393,214.448,264.535,225.841,262.877,237.235z"/>
</g>
</svg>
