<?xml version="1.0" encoding="UTF-8" standalone="no"?>
<!-- Generator: Adobe Illustrator 15.0.0, SVG Export Plug-In . SVG Version: 6.00 Build 0)  -->

<svg
   version="1.1"
   id="Ebene_1"
   x="0px"
   y="0px"
   width="16px"
   height="16px"
   viewBox="0 0 16 16"
   enable-background="new 0 0 16 16"
   xml:space="preserve"
   sodipodi:docname="GB10.svg"
   inkscape:version="1.4.2 (f4327f4, 2025-05-13)"
   xmlns:inkscape="http://www.inkscape.org/namespaces/inkscape"
   xmlns:sodipodi="http://sodipodi.sourceforge.net/DTD/sodipodi-0.dtd"
   xmlns="http://www.w3.org/2000/svg"
   xmlns:svg="http://www.w3.org/2000/svg"><defs
   id="defs2" /><sodipodi:namedview
   id="namedview2"
   pagecolor="#505050"
   bordercolor="#eeeeee"
   borderopacity="1"
   inkscape:showpageshadow="0"
   inkscape:pageopacity="0"
   inkscape:pagecheckerboard="0"
   inkscape:deskcolor="#505050"
   showguides="true"
   showgrid="true"
   inkscape:zoom="53.1875"
   inkscape:cx="8.0094007"
   inkscape:cy="8"
   inkscape:window-width="1920"
   inkscape:window-height="1111"
   inkscape:window-x="-9"
   inkscape:window-y="-9"
   inkscape:window-maximized="1"
   inkscape:current-layer="Ebene_1"><inkscape:grid
     id="grid2"
     units="px"
     originx="0"
     originy="0"
     spacingx="1"
     spacingy="1"
     empcolor="#0099e5"
     empopacity="0.30196078"
     color="#0099e5"
     opacity="0.14901961"
     empspacing="5"
     enabled="true"
     visible="true" /></sodipodi:namedview>
<g
   id="g1"
   style="fill:#313239;fill-opacity:1">
	<path
   d="M8,1c3.859,0,7,3.14,7,7c0,3.859-3.141,7-7,7c-3.86,0-7-3.141-7-7C1,4.14,4.14,1,8,1 M8,0C3.582,0,0,3.582,0,8   c0,4.418,3.582,8,8,8c4.418,0,8-3.582,8-8C16,3.582,12.418,0,8,0L8,0z"
   id="path1"
   style="fill:#313239;fill-opacity:1" />
</g>
<path
   fill="none"
   stroke="#000000"
   stroke-linecap="round"
   stroke-linejoin="round"
   stroke-miterlimit="10"
   d="M 8.0188014,11.529965 V 3.2220917 m -4,2.7661574 V 11.529965 H 12.018801 V 5.9882491 m 0,1.5863689 -3.9999996,-2.0446533 -4,2.0446533"
   id="path2"
   sodipodi:nodetypes="ccccccccc"
   style="stroke:#313239;stroke-opacity:1" />
</svg>
