<?xml version="1.0" encoding="UTF-8" standalone="no"?>
<!-- Created with Inkscape (http://www.inkscape.org/) -->

<svg
   width="105.26528mm"
   height="38.21307mm"
   viewBox="0 0 105.26528 38.21307"
   version="1.1"
   id="svg1"
   xmlns="http://www.w3.org/2000/svg"
   xmlns:svg="http://www.w3.org/2000/svg">
  <defs
     id="defs1" />
  <g
     id="layer1"
     transform="translate(-42.354169,-124.375)">
    <g
       id="g13">
      <path
         style="font-size:45.1556px;font-family:Forte;-inkscape-font-specification:Forte;text-align:end;text-anchor:end;fill:#313239;fill-opacity:1;fill-rule:nonzero;stroke-width:0.393423"
         d="m 62.846097,148.64463 -5.792085,-2.74716 q -1.103393,-0.54054 -1.588798,-0.94614 -0.464583,-0.3954 -0.671669,-1.00024 -0.323904,-0.94605 0.150982,-1.83636 0.495705,-0.88012 1.519291,-1.23057 0.635864,-0.21771 1.444009,-0.28648 0.828963,-0.0586 2.514281,0.006 0.347347,0.002 0.59633,0.0211 0.269802,0.0289 0.446132,0.0379 l 0.04079,-0.0833 q -2.096962,-0.96275 -4.343287,-1.80507 -1.856496,-0.71587 -2.81416,-1.18502 -0.957661,-0.46915 -1.510831,-0.92086 -0.55317,-0.4517 -0.707156,-0.90145 -0.345144,-1.00809 0.244035,-1.86822 0.589178,-0.86015 1.953959,-1.32742 1.721486,-0.58939 6.077439,-0.41739 3.868603,0.16559 5.281335,0.49627 1.979304,0.51788 2.451883,1.89817 0.286735,0.83749 0.06935,1.51835 -0.196566,0.69107 -0.832431,0.90877 -1.163166,0.39824 -3.854197,0.33196 -1.000824,-0.0385 -2.239591,-0.0129 l -0.04079,0.0833 q 0.83233,0.35613 2.818629,1.09687 3.447239,1.26283 4.80661,2.04495 1.827582,0.98568 2.236444,2.17986 0.180535,0.5273 -0.01156,1.13021 -0.192097,0.6029 -0.701367,1.08914 -0.488448,0.49645 -1.139822,0.71947 -0.666882,0.22832 -3.741168,0.20661 -0.642857,-0.005 -1.005712,-0.002 -0.362856,0.003 -0.627351,-0.0105 l -0.03548,0.0988 q 0.291463,0.14279 0.520468,0.25498 0.229007,0.11219 0.484142,0.25008 0.275953,0.1481 0.510271,0.2758 0.546597,0.28068 2.84686,1.38175 1.623021,0.69185 2.290485,1.17373 0.682971,0.47657 0.884747,1.06591 0.329211,0.96155 -0.167754,1.68616 -0.476149,0.7348 -1.763386,1.17552 -0.790953,0.27081 -2.581886,0.60676 -1.997443,0.44129 -3.130432,0.72524 -1.112171,0.29415 -1.54642,0.44282 -0.325686,0.11151 -0.826859,0.31776 -0.480366,0.21641 -1.022326,0.50595 -0.541967,0.28953 -1.18677,0.68356 -0.789269,0.47815 -1.248806,0.70479 -0.600799,0.0671 -1.227466,-0.49807 -0.621357,-0.54964 -0.89747,-1.35611 -0.435409,-1.27172 0.329938,-2.78129 0.357385,-0.67682 0.804617,-1.14183 0.437036,-0.44418 1.123474,-0.81782 0.707258,-0.36343 1.916951,-0.77761 0.790953,-0.2708 3.336092,-0.93428 l 0.04079,-0.0833 z"
         id="text11"
         aria-label="m" />
      <path
         id="path17"
         style="fill:none;fill-opacity:1;stroke:#313239;stroke-width:1.23789;stroke-opacity:1"
         d="m 79.948295,143.48154 a 18.487591,18.487591 0 0 1 -18.48759,18.48759 18.487591,18.487591 0 0 1 -18.487591,-18.48759 18.487591,18.487591 0 0 1 18.487591,-18.48759 18.487591,18.487591 0 0 1 18.48759,18.48759 z" />
    </g>
    <text
       xml:space="preserve"
       style="font-style:normal;font-variant:normal;font-weight:bold;font-stretch:normal;font-size:22.5778px;line-height:2.2;font-family:Forte;-inkscape-font-specification:'Forte Bold';text-align:end;writing-mode:lr-tb;direction:ltr;text-anchor:end;fill:#313239;stroke-width:0.365001"
       x="147.72969"
       y="147.86371"
       id="text5"><tspan
         id="tspan5"
         style="stroke-width:0.365"
         x="147.72969"
         y="147.86371"
         dx="0 -0.49356219">rummz</tspan></text>
  </g>
</svg>
