<?xml version="1.0" encoding="UTF-8" standalone="no"?>
<!-- Created with Inkscape (http://www.inkscape.org/) -->

<svg
   width="89.371124mm"
   height="17.45149mm"
   viewBox="0 0 89.371125 17.451491"
   version="1.1"
   id="svg1"
   inkscape:export-filename="rummz.svg"
   inkscape:export-xdpi="96"
   inkscape:export-ydpi="96"
   inkscape:version="1.4.2 (f4327f4, 2025-05-13)"
   sodipodi:docname="rummz4.svg"
   xmlns:inkscape="http://www.inkscape.org/namespaces/inkscape"
   xmlns:sodipodi="http://sodipodi.sourceforge.net/DTD/sodipodi-0.dtd"
   xmlns="http://www.w3.org/2000/svg"
   xmlns:svg="http://www.w3.org/2000/svg">
  <sodipodi:namedview
     id="namedview1"
     pagecolor="#505050"
     bordercolor="#eeeeee"
     borderopacity="1"
     inkscape:showpageshadow="0"
     inkscape:pageopacity="0"
     inkscape:pagecheckerboard="0"
     inkscape:deskcolor="#505050"
     inkscape:document-units="mm"
     inkscape:zoom="0.75811588"
     inkscape:cx="346.91266"
     inkscape:cy="144.43702"
     inkscape:window-width="1920"
     inkscape:window-height="1111"
     inkscape:window-x="-9"
     inkscape:window-y="-9"
     inkscape:window-maximized="1"
     inkscape:current-layer="layer1" />
  <defs
     id="defs1" />
  <g
     inkscape:label="Ebene 1"
     inkscape:groupmode="layer"
     id="layer1"
     transform="translate(-12.964582,-110.33125)">
    <path
       d="m 66.497221,126.74646 h -5.32474 v -9.31555 l -2.42535,6.0303 h -3.61598 l -2.46945,-6.0303 v 9.31555 h -5.06016 v -16.41521 h 6.00826 l 3.45061,7.78317 3.49471,-7.78317 h 5.9421 z"
       id="text2-7"
       style="font-weight:900;font-size:22.5778px;font-family:'Verdana Pro';-inkscape-font-specification:'Verdana Pro Heavy';stroke-width:0.264583"
       aria-label="M" />
    <path
       d="m 46.191881,120.73821 q 0,2.94349 -2.0836,4.65226 -2.07257,1.69774 -5.74367,1.69774 -3.66007,0 -5.73264,-1.69774 -2.07257,-1.69775 -2.07257,-4.64124 v -10.41798 h 5.60035 v 8.89663 q 0,1.80798 0.51814,2.57969 0.51815,0.7717 1.69775,0.7717 0.91502,0 1.35599,-0.31971 0.44097,-0.3197 0.63941,-1.05833 0.20946,-0.73863 0.20946,-2.00643 v -8.86355 h 5.61138 z"
       id="text2-7-6"
       style="font-weight:900;font-size:22.5778px;font-family:'Verdana Pro';-inkscape-font-specification:'Verdana Pro Heavy';stroke-width:0.264583"
       aria-label="U" />
    <path
       d="m 87.194311,126.74646 h -5.32475 v -9.31555 l -2.42535,6.0303 h -3.61597 l -2.46945,-6.0303 v 9.31555 h -5.06016 v -16.41521 h 6.00825 l 3.45061,7.78317 3.49471,-7.78317 h 5.94211 z"
       id="text2-7-6-2"
       style="font-weight:900;font-size:22.5778px;font-family:'Verdana Pro';-inkscape-font-specification:'Verdana Pro Heavy';stroke-width:0.264583"
       aria-label="M" />
    <path
       d="M 102.33571,126.74646 H 87.893861 v -3.59393 l 7.00044,-8.70921 h -6.59254 v -4.11207 h 13.493759 v 3.7152 l -7.011459,8.62101 h 7.551649 z"
       id="text2-7-6-2-6"
       style="font-weight:900;font-size:22.5778px;font-family:'Verdana Pro';-inkscape-font-specification:'Verdana Pro Heavy';stroke-width:0.264583"
       aria-label="Z" />
    <path
       d="m 23.977871,119.90036 q 0.52917,0 0.8158,-0.27561 0.29766,-0.27561 0.41893,-0.79375 0.12126,-0.50712 0.12126,-1.76389 v -1.17961 h -2.92144 v 0.9481 q 0,1.65364 0.35278,2.3592 0.35278,0.70556 1.21267,0.70556 z m -11.013289,7.88238 v -6.73585 l 5.765719,-4.31051 v -0.79375 h -5.765719 v -5.61138 h 16.415209 v 8.32336 q 0,3.32934 -1.10243,5.08221 -1.10243,1.76389 -3.28525,1.76389 -1.73082,0 -2.92144,-0.74965 -1.19063,-0.74966 -2.14974,-2.5356 z"
       id="text2-8-9"
       style="font-weight:900;font-size:22.5778px;font-family:'Verdana Pro';-inkscape-font-specification:'Verdana Pro Heavy';stroke-width:0.264583"
       aria-label="R" />
  </g>
</svg>
