<?xml version="1.0" encoding="UTF-8" standalone="no"?>
<!-- Created with Inkscape (http://www.inkscape.org/) -->

<svg
   width="51.397667mm"
   height="51.397667mm"
   viewBox="0 0 51.397667 51.397667"
   version="1.1"
   id="svg1"
   inkscape:export-filename="rummzicon.svg"
   inkscape:export-xdpi="96"
   inkscape:export-ydpi="96"
   inkscape:version="1.4.2 (f4327f4, 2025-05-13)"
   sodipodi:docname="rummz3.svg"
   xmlns:inkscape="http://www.inkscape.org/namespaces/inkscape"
   xmlns:sodipodi="http://sodipodi.sourceforge.net/DTD/sodipodi-0.dtd"
   xmlns="http://www.w3.org/2000/svg"
   xmlns:svg="http://www.w3.org/2000/svg">
  <sodipodi:namedview
     id="namedview1"
     pagecolor="#505050"
     bordercolor="#eeeeee"
     borderopacity="1"
     inkscape:showpageshadow="0"
     inkscape:pageopacity="0"
     inkscape:pagecheckerboard="0"
     inkscape:deskcolor="#505050"
     inkscape:document-units="mm"
     inkscape:zoom="0.75811588"
     inkscape:cx="133.22502"
     inkscape:cy="181.37069"
     inkscape:window-width="1920"
     inkscape:window-height="1111"
     inkscape:window-x="-9"
     inkscape:window-y="-9"
     inkscape:window-maximized="1"
     inkscape:current-layer="layer1" />
  <defs
     id="defs1" />
  <g
     inkscape:label="Ebene 1"
     inkscape:groupmode="layer"
     id="layer1"
     transform="translate(-69.585415,-100.54166)">
    <path
       style="font-size:45.1556px;font-family:Forte;-inkscape-font-specification:Forte;text-align:end;text-anchor:end;stroke-width:0.529165"
       d="m 97.14764,133.185 -7.790518,-3.69501 q -1.484094,-0.72705 -2.136978,-1.27259 -0.624877,-0.53181 -0.903414,-1.34535 -0.435659,-1.27246 0.203075,-2.46996 0.666737,-1.18378 2.04349,-1.65515 0.855255,-0.29282 1.942232,-0.38531 1.114979,-0.0788 3.38178,0.007 0.467191,0.003 0.802081,0.0284 0.362891,0.0389 0.60006,0.0509 l 0.05487,-0.11201 q -2.820474,-1.29492 -5.841844,-2.42786 -2.49704,-0.96287 -3.785124,-1.5939 -1.288082,-0.63102 -2.032111,-1.23857 -0.744029,-0.60755 -0.951146,-1.21249 -0.464228,-1.3559 0.328235,-2.5128 0.79246,-1.15692 2.62813,-1.78541 2.315448,-0.79276 8.174328,-0.56141 5.203381,0.22273 7.103544,0.6675 2.66222,0.69657 3.29785,2.5531 0.38567,1.12644 0.0933,2.04222 -0.26439,0.9295 -1.11965,1.22232 -1.56449,0.53565 -5.183998,0.44649 -1.346136,-0.0518 -3.012314,-0.0174 l -0.05487,0.11201 q 1.119508,0.479 3.791136,1.47531 4.636636,1.69856 6.465026,2.75052 2.45815,1.32576 3.00808,2.93198 0.24283,0.70923 -0.0156,1.52016 -0.25838,0.81092 -0.94336,1.46493 -0.65698,0.66774 -1.53309,0.9677 -0.89698,0.3071 -5.03198,0.27791 -0.864661,-0.007 -1.352711,-0.003 -0.488051,0.004 -0.843804,-0.0141 l -0.04772,0.13287 q 0.392026,0.19205 0.700044,0.34294 0.308022,0.1509 0.651185,0.33638 0.371156,0.19919 0.686326,0.37095 0.73519,0.37753 3.82911,1.8585 2.18301,0.93055 3.08076,1.5787 0.91862,0.64099 1.19001,1.43367 0.4428,1.29331 -0.22563,2.26793 -0.64043,0.98834 -2.3718,1.58112 -1.06386,0.36423 -3.47271,0.8161 -2.686618,0.59355 -4.210521,0.97547 -1.4959,0.39564 -2.079977,0.59561 -0.438058,0.14998 -1.11215,0.42739 -0.646105,0.29108 -1.375057,0.68053 -0.728962,0.38941 -1.596239,0.91939 -1.061589,0.64314 -1.679679,0.94797 -0.808092,0.0902 -1.650977,-0.66992 -0.835742,-0.73928 -1.207123,-1.824 -0.585637,-1.7105 0.443776,-3.74092 0.480693,-0.91034 1.082233,-1.53579 0.587826,-0.59744 1.511105,-1.09999 0.951281,-0.48883 2.578352,-1.0459 1.063854,-0.36424 4.487139,-1.25664 l 0.05487,-0.11201 z"
       id="text11"
       aria-label="m" />
    <circle
       style="fill:none;stroke:#000000;stroke-width:1.665;stroke-dasharray:none;stroke-opacity:1"
       id="path17"
       cx="95.284248"
       cy="126.24049"
       r="24.866333" />
  </g>
</svg>
