<?xml version="1.0" encoding="UTF-8" standalone="no"?>
<!-- Created with Inkscape (http://www.inkscape.org/) -->

<svg
   width="141.38579mm"
   height="38.21307mm"
   viewBox="0 0 141.38579 38.21307"
   version="1.1"
   id="svg1"
   inkscape:export-filename="rummz.svg"
   inkscape:export-xdpi="96"
   inkscape:export-ydpi="96"
   inkscape:version="1.4.2 (f4327f4, 2025-05-13)"
   sodipodi:docname="rummz2.svg"
   xmlns:inkscape="http://www.inkscape.org/namespaces/inkscape"
   xmlns:sodipodi="http://sodipodi.sourceforge.net/DTD/sodipodi-0.dtd"
   xmlns="http://www.w3.org/2000/svg"
   xmlns:svg="http://www.w3.org/2000/svg">
  <sodipodi:namedview
     id="namedview1"
     pagecolor="#505050"
     bordercolor="#eeeeee"
     borderopacity="1"
     inkscape:showpageshadow="0"
     inkscape:pageopacity="0"
     inkscape:pagecheckerboard="0"
     inkscape:deskcolor="#505050"
     inkscape:document-units="mm"
     showguides="true"
     showgrid="false"
     inkscape:zoom="1.0721378"
     inkscape:cx="457.49718"
     inkscape:cy="214.05831"
     inkscape:window-width="1920"
     inkscape:window-height="1111"
     inkscape:window-x="-9"
     inkscape:window-y="-9"
     inkscape:window-maximized="1"
     inkscape:current-layer="layer1">
    <inkscape:grid
       id="grid11"
       units="mm"
       originx="2.5558373e-09"
       originy="-4.9974441e-06"
       spacingx="1.0000001"
       spacingy="0.99999999"
       empcolor="#0099e5"
       empopacity="0.30196078"
       color="#0099e5"
       opacity="0.14901961"
       empspacing="5"
       enabled="true"
       visible="false" />
  </sodipodi:namedview>
  <defs
     id="defs1" />
  <g
     inkscape:label="Ebene 1"
     inkscape:groupmode="layer"
     id="layer1"
     transform="translate(-42.354169,-124.375)">
    <g
       id="g13">
      <path
         style="font-size:45.1556px;font-family:Forte;-inkscape-font-specification:Forte;text-align:end;text-anchor:end;fill:#313239;fill-opacity:1;fill-rule:nonzero;stroke-width:0.393423"
         d="m 62.846097,148.64463 -5.792085,-2.74716 q -1.103393,-0.54054 -1.588798,-0.94614 -0.464583,-0.3954 -0.671669,-1.00024 -0.323904,-0.94605 0.150982,-1.83636 0.495705,-0.88012 1.519291,-1.23057 0.635864,-0.21771 1.444009,-0.28648 0.828963,-0.0586 2.514281,0.006 0.347347,0.002 0.59633,0.0211 0.269802,0.0289 0.446132,0.0379 l 0.04079,-0.0833 q -2.096962,-0.96275 -4.343287,-1.80507 -1.856496,-0.71587 -2.81416,-1.18502 -0.957661,-0.46915 -1.510831,-0.92086 -0.55317,-0.4517 -0.707156,-0.90145 -0.345144,-1.00809 0.244035,-1.86822 0.589178,-0.86015 1.953959,-1.32742 1.721486,-0.58939 6.077439,-0.41739 3.868603,0.16559 5.281335,0.49627 1.979304,0.51788 2.451883,1.89817 0.286735,0.83749 0.06935,1.51835 -0.196566,0.69107 -0.832431,0.90877 -1.163166,0.39824 -3.854197,0.33196 -1.000824,-0.0385 -2.239591,-0.0129 l -0.04079,0.0833 q 0.83233,0.35613 2.818629,1.09687 3.447239,1.26283 4.80661,2.04495 1.827582,0.98568 2.236444,2.17986 0.180535,0.5273 -0.01156,1.13021 -0.192097,0.6029 -0.701367,1.08914 -0.488448,0.49645 -1.139822,0.71947 -0.666882,0.22832 -3.741168,0.20661 -0.642857,-0.005 -1.005712,-0.002 -0.362856,0.003 -0.627351,-0.0105 l -0.03548,0.0988 q 0.291463,0.14279 0.520468,0.25498 0.229007,0.11219 0.484142,0.25008 0.275953,0.1481 0.510271,0.2758 0.546597,0.28068 2.84686,1.38175 1.623021,0.69185 2.290485,1.17373 0.682971,0.47657 0.884747,1.06591 0.329211,0.96155 -0.167754,1.68616 -0.476149,0.7348 -1.763386,1.17552 -0.790953,0.27081 -2.581886,0.60676 -1.997443,0.44129 -3.130432,0.72524 -1.112171,0.29415 -1.54642,0.44282 -0.325686,0.11151 -0.826859,0.31776 -0.480366,0.21641 -1.022326,0.50595 -0.541967,0.28953 -1.18677,0.68356 -0.789269,0.47815 -1.248806,0.70479 -0.600799,0.0671 -1.227466,-0.49807 -0.621357,-0.54964 -0.89747,-1.35611 -0.435409,-1.27172 0.329938,-2.78129 0.357385,-0.67682 0.804617,-1.14183 0.437036,-0.44418 1.123474,-0.81782 0.707258,-0.36343 1.916951,-0.77761 0.790953,-0.2708 3.336092,-0.93428 l 0.04079,-0.0833 z"
         id="text11"
         aria-label="m" />
      <path
         id="path17"
         style="fill:none;fill-opacity:1;stroke:#313239;stroke-width:1.23789;stroke-opacity:1"
         d="m 79.948295,143.48154 a 18.487591,18.487591 0 0 1 -18.48759,18.48759 18.487591,18.487591 0 0 1 -18.487591,-18.48759 18.487591,18.487591 0 0 1 18.487591,-18.48759 18.487591,18.487591 0 0 1 18.48759,18.48759 z" />
    </g>
    <path
       style="font-weight:900;font-size:22.5778px;line-height:2.2;font-family:'Verdana Pro';-inkscape-font-specification:'Verdana Pro Heavy';text-align:end;text-anchor:end;fill:#313239;stroke-width:0.365"
       d="m 97.265219,140.50498 q 0,-0.52917 -0.275608,-0.8158 -0.275608,-0.29766 -0.793751,-0.41893 -0.507119,-0.12126 -1.763891,-0.12126 h -1.179602 v 2.92144 h 0.948092 q 1.653647,0 2.359203,-0.35278 0.705557,-0.35278 0.705557,-1.21267 z m 7.882391,11.01329 h -6.735862 l -4.310508,-5.76572 h -0.793751 v 5.76572 h -5.611377 v -16.41521 h 8.323359 q 3.329344,0 5.082209,1.10243 1.76389,1.10244 1.76389,3.28525 0,1.73082 -0.74965,2.92144 -0.74966,1.19063 -2.535595,2.14975 z m 16.56954,-6.00825 q 0,2.94349 -2.08359,4.65226 -2.07257,1.69774 -5.74367,1.69774 -3.66007,0 -5.73265,-1.69774 -2.07257,-1.69775 -2.07257,-4.64124 v -10.41798 h 5.60036 v 8.89663 q 0,1.80798 0.51814,2.57969 0.51814,0.7717 1.69774,0.7717 0.91502,0 1.35599,-0.31971 0.44098,-0.3197 0.63941,-1.05833 0.20947,-0.73863 0.20947,-2.00643 v -8.86355 h 5.61137 z m 22.35732,6.00825 h -5.32475 v -9.31555 l -2.42535,6.0303 h -3.61597 l -2.46945,-6.0303 v 9.31555 h -5.06016 v -16.41521 h 6.00825 l 3.45061,7.78317 3.49471,-7.78317 h 5.94211 z m 22.6219,0 h -5.32475 v -9.31555 l -2.42535,6.0303 h -3.61597 l -2.46945,-6.0303 v 9.31555 h -5.06016 v -16.41521 h 6.00825 l 3.45061,7.78317 3.49471,-7.78317 h 5.94211 z m 17.04359,0 H 169.2981 v -3.59393 l 7.00044,-8.70921 H 169.706 v -4.11207 h 13.49377 v 3.7152 l -7.01147,8.62101 h 7.55166 z"
       id="text14"
       aria-label="RUMMZ" />
  </g>
</svg>
